# xmcd
#
# Track frame offsets: 
#        150
#        23718
#        43821
#        70305
#        90982
#        109233
#        124761
#        143034
#        169651
#        189199
#        203480
#        221012
#
# Disc length: 3242 seconds
#
# Revision: 0
# Processed by: cddbd v1.5.1PL2 Copyright (c) Steve Scherf et al.
# Submitted via: ExactAudioCopy v0.95b3
#
DISCID=a10ca80c
DTITLE=Susaye Greene - No Fear Here
DYEAR=2002
DGENRE=R&B
TTITLE0=End of Days
TTITLE1=Is This Thing Called Love?
TTITLE2=Queen of Fates
TTITLE3=Forever 
TTITLE4=Bewitched (By Your Love)
TTITLE5=Be the One
TTITLE6=Letting You Go
TTITLE7=Ha Ha Hey (Laugh Til You Cry)
TTITLE8=Lovemagic 
TTITLE9=Bali Ha'i
TTITLE10=Secrets 
TTITLE11=Unvelievable 
EXTD=
EXTT0=
EXTT1=
EXTT2=
EXTT3=
EXTT4=
EXTT5=
EXTT6=
EXTT7=
EXTT8=
EXTT9=
EXTT10=
EXTT11=
PLAYORDER=
